<svg width="207" height="155" viewBox="0 0 207 155" fill="none" xmlns="http://www.w3.org/2000/svg">
<path d="M193.328 10.308C190.784 8.82379 189.925 5.55809 191.409 3.01383C192.893 0.46957 196.159 -0.389768 198.703 1.09443C201.247 2.57863 202.107 5.84432 200.622 8.38859C199.138 10.9328 195.872 11.7922 193.328 10.308ZM3.94203 132.955C3.40919 133.1 2.85948 132.786 2.71423 132.253L0.347168 123.57C0.201918 123.037 0.51611 122.488 1.04896 122.342C1.58179 122.197 2.1315 122.511 2.27675 123.044L4.38081 130.762L12.0992 128.658C12.632 128.513 13.1817 128.827 13.327 129.36C13.4722 129.893 13.158 130.443 12.6252 130.588L3.94203 132.955ZM135.009 148.98L135.608 149.781L135.009 148.98ZM84.8381 134.763L84.1213 135.46L84.0978 135.436L84.0761 135.41L84.8381 134.763ZM141.92 90.4947L141.162 89.8432L141.92 90.4947ZM198.066 74.6236L198.832 75.266L198.066 74.6236ZM42.2256 100.643L42.1015 101.635L42.2256 100.643ZM135.009 148.98L135.608 149.781C124.585 158.024 111.538 154.208 101.548 148.645C96.5193 145.844 92.1675 142.551 89.077 139.963C87.5302 138.668 86.2955 137.547 85.4458 136.747C85.0208 136.347 84.6919 136.028 84.4682 135.807C84.3563 135.697 84.2707 135.611 84.2126 135.552C84.1835 135.523 84.1612 135.501 84.1459 135.485C84.1383 135.477 84.1324 135.471 84.1283 135.467C84.1263 135.465 84.1247 135.463 84.1235 135.462C84.1229 135.461 84.1223 135.461 84.1221 135.461C84.1216 135.46 84.1213 135.46 84.8381 134.763C85.5549 134.065 85.5548 134.065 85.5548 134.065C85.555 134.065 85.5551 134.065 85.5554 134.066C85.556 134.066 85.557 134.067 85.5585 134.069C85.5615 134.072 85.5662 134.077 85.5727 134.083C85.5856 134.097 85.6054 134.117 85.6321 134.144C85.6854 134.197 85.766 134.278 85.8726 134.383C86.0859 134.593 86.4035 134.902 86.8163 135.29C87.642 136.067 88.8478 137.163 90.3609 138.43C93.3904 140.966 97.6368 144.177 102.521 146.897C112.358 152.376 124.396 155.669 134.41 148.179L135.009 148.98ZM141.92 90.4947L142.679 91.1463C139.136 95.2719 138.023 99.984 138.109 105.04C138.195 110.137 139.495 115.496 140.727 120.892C141.946 126.228 143.102 131.617 142.749 136.555C142.391 141.566 140.478 146.138 135.608 149.781L135.009 148.98L134.41 148.179C138.749 144.934 140.431 140.933 140.754 136.413C141.083 131.82 140.007 126.721 138.777 121.337C137.562 116.015 136.2 110.426 136.109 105.074C136.018 99.6801 137.213 94.4414 141.162 89.8432L141.92 90.4947ZM196.016 5.70121C196.944 5.32923 196.944 5.32962 196.944 5.33019C196.944 5.33063 196.945 5.33139 196.945 5.33227C196.946 5.33402 196.947 5.33649 196.948 5.3397C196.951 5.34612 196.954 5.35545 196.959 5.36767C196.969 5.39208 196.983 5.42803 197.001 5.47519C197.038 5.56952 197.093 5.70876 197.162 5.89059C197.302 6.25425 197.503 6.78832 197.753 7.47427C198.252 8.84603 198.945 10.8258 199.722 13.2651C201.274 18.1414 203.165 24.8651 204.512 32.2445C205.858 39.6182 206.669 47.6835 206.041 55.2319C205.413 62.7733 203.34 69.8899 198.832 75.266L198.066 74.6236L197.3 73.9811C201.443 69.0396 203.438 62.382 204.048 55.0659C204.656 47.7568 203.873 39.8812 202.545 32.6037C201.217 25.332 199.351 18.6942 197.816 13.8718C197.049 11.4618 196.365 9.50796 195.874 8.15841C195.628 7.4837 195.431 6.96022 195.295 6.60647C195.227 6.4296 195.175 6.29518 195.14 6.20553C195.122 6.1607 195.109 6.12707 195.1 6.10491C195.096 6.09383 195.092 6.08563 195.09 6.08033C195.089 6.07768 195.088 6.07575 195.088 6.07457C195.088 6.07397 195.087 6.07363 195.087 6.07333C195.087 6.07317 195.087 6.07319 196.016 5.70121ZM198.066 74.6236L198.832 75.266C191.153 84.426 180.294 83.9965 170.034 83.6242C159.589 83.2451 149.741 82.9234 142.679 91.1463L141.92 90.4947L141.162 89.8432C148.945 80.7801 159.85 81.2533 170.107 81.6255C180.549 82.0044 190.34 82.2823 197.3 73.9811L198.066 74.6236ZM84.8381 134.763C84.0761 135.41 84.0761 135.41 84.0759 135.41C84.0757 135.41 84.0755 135.409 84.0751 135.409C84.0744 135.408 84.0733 135.407 84.0717 135.405C84.0686 135.401 84.0638 135.396 84.0574 135.388C84.0447 135.373 84.0253 135.351 83.9996 135.321C83.9483 135.261 83.8714 135.171 83.7702 135.054C83.5678 134.82 83.2683 134.475 82.8813 134.035C82.1072 133.155 80.9833 131.895 79.5866 130.376C76.7923 127.337 72.9108 123.269 68.5581 119.143C64.202 115.014 59.3919 110.846 54.7397 107.598C50.0562 104.328 45.6565 102.08 42.1015 101.635L42.2256 100.643L42.3497 99.6505C46.4135 100.159 51.1498 102.652 55.8847 105.958C60.6508 109.286 65.5416 113.528 69.9339 117.691C74.3295 121.858 78.2441 125.961 81.0588 129.022C82.4666 130.553 83.6004 131.825 84.3829 132.714C84.7741 133.159 85.0776 133.508 85.2837 133.747C85.3867 133.866 85.4654 133.958 85.5186 134.02C85.5451 134.051 85.5653 134.074 85.579 134.09C85.5858 134.098 85.591 134.104 85.5945 134.108C85.5963 134.11 85.5976 134.112 85.5986 134.113C85.599 134.114 85.5994 134.114 85.5997 134.114C85.6 134.115 85.6001 134.115 84.8381 134.763ZM42.2256 100.643L42.1015 101.635C37.6017 101.072 33.0198 102.614 28.6108 105.373C24.2062 108.129 20.0617 112.047 16.4801 116.078C12.9032 120.104 9.91699 124.21 7.82347 127.313C6.77747 128.863 5.95615 130.161 5.39728 131.069C5.11788 131.523 4.90419 131.879 4.76092 132.121C4.68928 132.242 4.63525 132.334 4.59944 132.396C4.58153 132.427 4.56818 132.45 4.55945 132.465C4.55508 132.473 4.55188 132.478 4.54983 132.482C4.54881 132.484 4.54809 132.485 4.54764 132.486C4.54742 132.486 4.54731 132.486 4.5472 132.486C4.54716 132.486 4.5472 132.486 3.67902 131.99C2.81084 131.494 2.81102 131.494 2.81128 131.493C2.81147 131.493 2.81179 131.492 2.81217 131.492C2.8129 131.49 2.81393 131.489 2.81526 131.486C2.81791 131.482 2.82172 131.475 2.82671 131.466C2.83667 131.449 2.85129 131.424 2.87047 131.391C2.90884 131.325 2.96551 131.228 3.03988 131.102C3.18863 130.851 3.40826 130.485 3.69403 130.02C4.26548 129.092 5.1019 127.771 6.16551 126.194C8.29121 123.044 11.3317 118.861 14.9849 114.749C18.6334 110.643 22.9221 106.573 27.5499 103.677C32.1734 100.784 37.2231 99.0094 42.3497 99.6505L42.2256 100.643Z" fill="black"/>
</svg>
